<svg width="141" height="20" viewBox="0 0 141 20" fill="none" xmlns="http://www.w3.org/2000/svg">
<path d="M14.4453 7.46484C14.4219 8.06641 14.3008 8.61719 14.082 9.11719C13.8633 9.61719 13.5742 10.0703 13.2148 10.4766C12.8555 10.875 12.4375 11.2344 11.9609 11.5547C11.4844 11.8672 10.9766 12.1367 10.4375 12.3633L13.8477 17.7305L11.4219 18.5273L8.14062 13.0547C7.76562 13.125 7.375 13.1836 6.96875 13.2305C6.57031 13.2773 6.12891 13.3008 5.64453 13.3008C5.25391 13.3008 4.82422 13.2852 4.35547 13.2539C3.89453 13.2148 3.41016 13.1484 2.90234 13.0547L2.94922 18.0234L0.476562 18.1172V1.53516C1.14844 1.33203 1.82031 1.17969 2.49219 1.07812C3.16406 0.976562 3.77734 0.898438 4.33203 0.84375C4.97266 0.789062 5.59375 0.753906 6.19531 0.738281C6.70312 0.738281 7.26562 0.773438 7.88281 0.84375C8.5 0.914062 9.11719 1.03906 9.73438 1.21875C10.3594 1.39844 10.9609 1.64844 11.5391 1.96875C12.125 2.28906 12.6367 2.69922 13.0742 3.19922C13.5195 3.69141 13.8672 4.28906 14.1172 4.99219C14.3672 5.69531 14.4766 6.51953 14.4453 7.46484ZM6.19531 3.09375C5.83594 3.09375 5.46484 3.10938 5.08203 3.14062C4.75391 3.16406 4.39062 3.19922 3.99219 3.24609C3.59375 3.28516 3.20703 3.34766 2.83203 3.43359L2.87891 10.8984C3.24609 10.9688 3.61328 11.0195 3.98047 11.0508C4.35547 11.0742 4.71875 11.0859 5.07031 11.0859C6.00781 11.0859 6.89453 10.9805 7.73047 10.7695C8.57422 10.5508 9.3125 10.2539 9.94531 9.87891C10.5781 9.50391 11.082 9.0625 11.457 8.55469C11.832 8.03906 12.0195 7.48438 12.0195 6.89062C12.0195 6.28906 11.875 5.75391 11.5859 5.28516C11.3047 4.81641 10.9062 4.42188 10.3906 4.10156C9.875 3.77344 9.25781 3.52344 8.53906 3.35156C7.82812 3.17969 7.04688 3.09375 6.19531 3.09375ZM22.6133 16.9219C23.0273 16.9219 23.4375 16.8594 23.8438 16.7344C24.25 16.6016 24.625 16.4141 24.9688 16.1719C25.3125 15.9219 25.6094 15.6133 25.8594 15.2461C26.1172 14.8789 26.3047 14.4531 26.4219 13.9688L28.6836 14.4258C28.4648 15.1367 28.1562 15.7812 27.7578 16.3594C27.3594 16.9375 26.8945 17.4336 26.3633 17.8477C25.832 18.2617 25.2461 18.582 24.6055 18.8086C23.9727 19.0352 23.3086 19.1484 22.6133 19.1484C21.582 19.1484 20.668 18.9922 19.8711 18.6797C19.0742 18.3672 18.4023 17.9258 17.8555 17.3555C17.3086 16.7852 16.8906 16.0977 16.6016 15.293C16.3203 14.4883 16.1797 13.5898 16.1797 12.5977C16.1797 11.6211 16.3438 10.7109 16.6719 9.86719C17.0078 9.01562 17.4648 8.27734 18.043 7.65234C18.6211 7.02734 19.3008 6.53516 20.082 6.17578C20.8633 5.81641 21.707 5.63672 22.6133 5.63672C23.4258 5.63672 24.1914 5.79688 24.9102 6.11719C25.6289 6.42969 26.2656 6.86719 26.8203 7.42969C27.375 7.98438 27.832 8.64062 28.1914 9.39844C28.5508 10.1562 28.7773 10.9766 28.8711 11.8594L18.7227 13.3711C18.7773 13.9258 18.9141 14.4258 19.1328 14.8711C19.3516 15.3086 19.6289 15.6797 19.9648 15.9844C20.3086 16.2891 20.7031 16.5234 21.1484 16.6875C21.6016 16.8438 22.0898 16.9219 22.6133 16.9219ZM25.8477 10.3477L25.7773 10.125C25.4805 9.35156 25.0703 8.74609 24.5469 8.30859C24.0312 7.87109 23.3867 7.65234 22.6133 7.65234C22.2852 7.65234 21.9258 7.71094 21.5352 7.82812C21.1445 7.9375 20.7656 8.12891 20.3984 8.40234C20.0312 8.67578 19.6992 9.04297 19.4023 9.50391C19.1133 9.95703 18.9102 10.5234 18.793 11.2031L25.8477 10.3477ZM42.1367 6.11719L37.5312 18.457L34.2266 18.4102L30.1133 6.57422L32.4922 6.21094L35.9961 16.2773L39.7227 5.78906L42.1367 6.11719ZM47.5156 2.37891C47.5156 2.60547 47.4688 2.82031 47.375 3.02344C47.2891 3.22656 47.168 3.40234 47.0117 3.55078C46.8633 3.69922 46.6875 3.81641 46.4844 3.90234C46.2812 3.98828 46.0625 4.03125 45.8281 4.03125C45.6016 4.03125 45.3867 3.98828 45.1836 3.90234C44.9883 3.81641 44.8125 3.69922 44.6562 3.55078C44.5078 3.40234 44.3906 3.22656 44.3047 3.02344C44.2188 2.82031 44.1758 2.60547 44.1758 2.37891C44.1758 2.14453 44.2188 1.92578 44.3047 1.72266C44.3906 1.51953 44.5078 1.34375 44.6562 1.19531C44.8125 1.03906 44.9883 0.917969 45.1836 0.832031C45.3867 0.738281 45.6016 0.691406 45.8281 0.691406C46.0625 0.691406 46.2812 0.738281 46.4844 0.832031C46.6875 0.917969 46.8633 1.03906 47.0117 1.19531C47.168 1.34375 47.2891 1.51953 47.375 1.72266C47.4688 1.92578 47.5156 2.14453 47.5156 2.37891ZM46.9648 6.50391C46.9414 7.62109 46.918 8.64844 46.8945 9.58594C46.8789 10.5156 46.8633 11.3633 46.8477 12.1289C46.832 12.8945 46.8164 13.582 46.8008 14.1914C46.793 14.793 46.7852 15.3203 46.7773 15.7734C46.7539 16.8516 46.7422 17.6992 46.7422 18.3164H44.3398C44.3555 17.4727 44.375 16.4688 44.3984 15.3047C44.4141 14.3047 44.4336 13.082 44.457 11.6367C44.4883 10.1914 44.5156 8.51172 44.5391 6.59766L46.9648 6.50391ZM55.9648 16.9219C56.3789 16.9219 56.7891 16.8594 57.1953 16.7344C57.6016 16.6016 57.9766 16.4141 58.3203 16.1719C58.6641 15.9219 58.9609 15.6133 59.2109 15.2461C59.4688 14.8789 59.6562 14.4531 59.7734 13.9688L62.0352 14.4258C61.8164 15.1367 61.5078 15.7812 61.1094 16.3594C60.7109 16.9375 60.2461 17.4336 59.7148 17.8477C59.1836 18.2617 58.5977 18.582 57.957 18.8086C57.3242 19.0352 56.6602 19.1484 55.9648 19.1484C54.9336 19.1484 54.0195 18.9922 53.2227 18.6797C52.4258 18.3672 51.7539 17.9258 51.207 17.3555C50.6602 16.7852 50.2422 16.0977 49.9531 15.293C49.6719 14.4883 49.5312 13.5898 49.5312 12.5977C49.5312 11.6211 49.6953 10.7109 50.0234 9.86719C50.3594 9.01562 50.8164 8.27734 51.3945 7.65234C51.9727 7.02734 52.6523 6.53516 53.4336 6.17578C54.2148 5.81641 55.0586 5.63672 55.9648 5.63672C56.7773 5.63672 57.543 5.79688 58.2617 6.11719C58.9805 6.42969 59.6172 6.86719 60.1719 7.42969C60.7266 7.98438 61.1836 8.64062 61.543 9.39844C61.9023 10.1562 62.1289 10.9766 62.2227 11.8594L52.0742 13.3711C52.1289 13.9258 52.2656 14.4258 52.4844 14.8711C52.7031 15.3086 52.9805 15.6797 53.3164 15.9844C53.6602 16.2891 54.0547 16.5234 54.5 16.6875C54.9531 16.8438 55.4414 16.9219 55.9648 16.9219ZM59.1992 10.3477L59.1289 10.125C58.832 9.35156 58.4219 8.74609 57.8984 8.30859C57.3828 7.87109 56.7383 7.65234 55.9648 7.65234C55.6367 7.65234 55.2773 7.71094 54.8867 7.82812C54.4961 7.9375 54.1172 8.12891 53.75 8.40234C53.3828 8.67578 53.0508 9.04297 52.7539 9.50391C52.4648 9.95703 52.2617 10.5234 52.1445 11.2031L59.1992 10.3477ZM80.1523 6.16406L77.8203 18.4102L74.3398 18.5039L72.2773 9.89062L69.4414 18.0938L65.9375 18.3633L63.6641 6.21094L66.0781 6.02344L67.8594 15.8672L71.3398 6.02344L73.5898 6.16406L75.9688 16.125L77.5508 6.07031L80.1523 6.16406Z" fill="#463C74"/>
<path d="M97.7422 13.418C97.7656 14.2461 97.6328 14.957 97.3438 15.5508C97.0547 16.1445 96.6602 16.6445 96.1602 17.0508C95.668 17.4492 95.0898 17.7695 94.4258 18.0117C93.7695 18.2617 93.0781 18.4492 92.3516 18.5742C91.6328 18.707 90.9062 18.793 90.1719 18.832C89.4375 18.8711 88.75 18.8906 88.1094 18.8906C87.4609 18.8906 86.7383 18.8711 85.9414 18.832C85.1523 18.8008 84.2852 18.7461 83.3398 18.668L82.8359 1.60547C83.6484 1.45703 84.4375 1.34766 85.2031 1.27734C85.9688 1.19922 86.6523 1.14453 87.2539 1.11328C87.957 1.08203 88.6211 1.07031 89.2461 1.07812C89.8398 1.09375 90.4375 1.12891 91.0391 1.18359C91.6406 1.23828 92.2148 1.33203 92.7617 1.46484C93.3164 1.58984 93.832 1.76562 94.3086 1.99219C94.7852 2.21875 95.1992 2.50781 95.5508 2.85938C95.9023 3.21094 96.1797 3.63672 96.3828 4.13672C96.5859 4.62891 96.6875 5.21094 96.6875 5.88281C96.6875 6.75781 96.5273 7.50781 96.207 8.13281C95.8867 8.75 95.4688 9.26172 94.9531 9.66797C95.2812 9.77734 95.5742 9.91406 95.832 10.0781C96.0898 10.2344 96.3125 10.4102 96.5 10.6055C96.6953 10.8008 96.8594 11.0078 96.9922 11.2266C97.1328 11.4375 97.25 11.6484 97.3438 11.8594C97.5547 12.3438 97.6875 12.8633 97.7422 13.418ZM89.293 3.21094C88.9258 3.21094 88.5273 3.22266 88.0977 3.24609C87.7305 3.26172 87.3086 3.29297 86.832 3.33984C86.3633 3.38672 85.8633 3.44922 85.332 3.52734L85.5195 9.50391C86.1914 9.48828 86.8008 9.46875 87.3477 9.44531C87.9023 9.41406 88.3789 9.38672 88.7773 9.36328C89.2461 9.33203 89.6641 9.30078 90.0312 9.26953C90.6094 9.23828 91.1602 9.14453 91.6836 8.98828C92.2148 8.82422 92.6758 8.60156 93.0664 8.32031C93.457 8.03906 93.7578 7.69531 93.9688 7.28906C94.1875 6.88281 94.2695 6.41406 94.2148 5.88281C94.168 5.49219 94.0586 5.15234 93.8867 4.86328C93.7227 4.56641 93.5117 4.31641 93.2539 4.11328C93.0039 3.90234 92.7148 3.73438 92.3867 3.60938C92.0664 3.47656 91.7305 3.37891 91.3789 3.31641C91.0352 3.24609 90.6836 3.20703 90.3242 3.19922C89.9648 3.18359 89.6211 3.1875 89.293 3.21094ZM91.5195 11.1562C91.3242 11.1719 91.1523 11.1875 91.0039 11.2031C90.8633 11.2109 90.7383 11.2188 90.6289 11.2266C90.5273 11.2344 90.4336 11.2422 90.3477 11.25C90.2695 11.2578 90.1953 11.2617 90.125 11.2617C89.6953 11.3008 89.2344 11.3359 88.7422 11.3672C88.3203 11.3984 87.8359 11.4336 87.2891 11.4727C86.7422 11.5039 86.1758 11.5352 85.5898 11.5664L85.7656 16.7578C85.9844 16.7734 86.1992 16.7812 86.4102 16.7812C86.6211 16.7812 86.8281 16.7812 87.0312 16.7812C87.3984 16.7812 87.8594 16.7812 88.4141 16.7812C88.9766 16.7734 89.5625 16.7461 90.1719 16.6992C90.7891 16.6445 91.4023 16.5547 92.0117 16.4297C92.6289 16.2969 93.1797 16.1094 93.6641 15.8672C94.1562 15.6172 94.5469 15.2969 94.8359 14.9062C95.1328 14.5156 95.2695 14.0273 95.2461 13.4414C95.1758 13.0195 94.9961 12.6406 94.707 12.3047C94.582 12.1641 94.4258 12.0234 94.2383 11.8828C94.0586 11.7422 93.8398 11.6211 93.582 11.5195C93.3242 11.4102 93.0234 11.3242 92.6797 11.2617C92.3438 11.1914 91.957 11.1562 91.5195 11.1562ZM112.121 12.3164C112.121 13.3008 111.957 14.2109 111.629 15.0469C111.301 15.8828 110.852 16.6094 110.281 17.2266C109.711 17.8438 109.043 18.3242 108.277 18.668C107.512 19.0195 106.695 19.1953 105.828 19.1953C104.961 19.1953 104.148 19.0312 103.391 18.7031C102.633 18.375 101.969 17.9102 101.398 17.3086C100.836 16.6992 100.391 15.9727 100.062 15.1289C99.7344 14.2852 99.5703 13.3477 99.5703 12.3164C99.5703 11.2773 99.7344 10.3359 100.062 9.49219C100.391 8.64062 100.836 7.91406 101.398 7.3125C101.969 6.71094 102.633 6.24609 103.391 5.91797C104.148 5.58984 104.961 5.42578 105.828 5.42578C106.695 5.42578 107.512 5.60156 108.277 5.95312C109.043 6.29688 109.711 6.77734 110.281 7.39453C110.852 8.00391 111.301 8.73047 111.629 9.57422C111.957 10.4102 112.121 11.3242 112.121 12.3164ZM109.648 12.293C109.648 11.7305 109.578 11.1641 109.438 10.5938C109.297 10.0156 109.074 9.5 108.77 9.04688C108.465 8.58594 108.07 8.21094 107.586 7.92188C107.102 7.63281 106.516 7.48828 105.828 7.48828C105.164 7.48828 104.594 7.63281 104.117 7.92188C103.641 8.21094 103.25 8.58594 102.945 9.04688C102.641 9.5 102.418 10.0156 102.277 10.5938C102.137 11.1641 102.066 11.7305 102.066 12.293C102.066 12.8555 102.141 13.4219 102.289 13.9922C102.445 14.5625 102.68 15.0781 102.992 15.5391C103.305 15.9922 103.695 16.3633 104.164 16.6523C104.641 16.9414 105.195 17.0859 105.828 17.0859C106.492 17.0859 107.062 16.9414 107.539 16.6523C108.023 16.3633 108.422 15.9922 108.734 15.5391C109.047 15.0781 109.277 14.5625 109.426 13.9922C109.574 13.4219 109.648 12.8555 109.648 12.293ZM126.488 12.3164C126.488 13.3008 126.324 14.2109 125.996 15.0469C125.668 15.8828 125.219 16.6094 124.648 17.2266C124.078 17.8438 123.41 18.3242 122.645 18.668C121.879 19.0195 121.062 19.1953 120.195 19.1953C119.328 19.1953 118.516 19.0312 117.758 18.7031C117 18.375 116.336 17.9102 115.766 17.3086C115.203 16.6992 114.758 15.9727 114.43 15.1289C114.102 14.2852 113.938 13.3477 113.938 12.3164C113.938 11.2773 114.102 10.3359 114.43 9.49219C114.758 8.64062 115.203 7.91406 115.766 7.3125C116.336 6.71094 117 6.24609 117.758 5.91797C118.516 5.58984 119.328 5.42578 120.195 5.42578C121.062 5.42578 121.879 5.60156 122.645 5.95312C123.41 6.29688 124.078 6.77734 124.648 7.39453C125.219 8.00391 125.668 8.73047 125.996 9.57422C126.324 10.4102 126.488 11.3242 126.488 12.3164ZM124.016 12.293C124.016 11.7305 123.945 11.1641 123.805 10.5938C123.664 10.0156 123.441 9.5 123.137 9.04688C122.832 8.58594 122.438 8.21094 121.953 7.92188C121.469 7.63281 120.883 7.48828 120.195 7.48828C119.531 7.48828 118.961 7.63281 118.484 7.92188C118.008 8.21094 117.617 8.58594 117.312 9.04688C117.008 9.5 116.785 10.0156 116.645 10.5938C116.504 11.1641 116.434 11.7305 116.434 12.293C116.434 12.8555 116.508 13.4219 116.656 13.9922C116.812 14.5625 117.047 15.0781 117.359 15.5391C117.672 15.9922 118.062 16.3633 118.531 16.6523C119.008 16.9414 119.562 17.0859 120.195 17.0859C120.859 17.0859 121.43 16.9414 121.906 16.6523C122.391 16.3633 122.789 15.9922 123.102 15.5391C123.414 15.0781 123.645 14.5625 123.793 13.9922C123.941 13.4219 124.016 12.8555 124.016 12.293ZM132.195 0.234375L131.762 11.3555L137.879 5.20312L139.684 6.64453L135.312 10.9688L140.352 17.5195L138.289 19.0312L133.578 12.6914L131.633 14.5898L131.516 18.1172L128.996 18.2695L129.594 0.1875L132.195 0.234375Z" fill="#B4D51E"/>
</svg>
